<svg class="svg-icon" style="width:40px;height:40px;vertical-align:middle;fill:rgba(255,255,255,.8);overflow:hidden" viewBox="0 0 1024 1024" xmlns="http://www.w3.org/2000/svg" width="40" height="40"><path d="M908.017 958.06c-10.458 0-20.989-3.182-30.102-9.662a61.568 61.568 0 0 1-3.904-3.033 128.733 128.733 0 0 1-3.95-3.483c-2.29-2.086-5.416-5.013-9.56-8.946-7.26-6.891-17.808-17.04-31.353-30.162-22.664-21.958-54.142-52.653-93.557-91.231a81667.265 81667.265 0 0 1-103.5-101.508c-47.977 33.203-119.533 68.915-205.344 68.915-48.764 0-96.103-9.456-140.699-28.108-43.082-18.019-81.772-43.81-114.994-76.662-33.258-32.886-59.38-71.205-77.64-113.895-18.932-44.258-28.531-91.249-28.531-139.665s9.6-95.407 28.531-139.666c18.26-42.69 44.382-81.01 77.641-113.895 33.222-32.85 71.912-58.643 114.994-76.661 44.596-18.652 91.934-28.109 140.7-28.109s96.102 9.458 140.698 28.109c43.082 18.018 81.772 43.81 114.993 76.661 33.258 32.885 59.38 71.205 77.64 113.895 18.932 44.26 28.531 91.25 28.531 139.666 0 79.223-28.18 155.447-80.261 219.233 26.087 25.282 63.013 61.094 99.684 96.731 39.474 38.364 70.939 69.027 93.516 91.142 13.473 13.194 23.92 23.48 31.054 30.577 4.021 4 7.02 7.012 9.165 9.21 5.675 5.815 17.482 17.914 17.65 38.754l.173 21.502-15.219 15.22a51.321 51.321 0 0 1-36.356 15.07zm-481.27-793.051c-142.825 0-259.023 114.666-259.023 255.61s116.198 255.61 259.023 255.61c76.889 0 140.285-43.094 172.901-70.595l1.616-1.507c54.494-50.84 84.507-116.01 84.507-183.508 0-140.944-116.198-255.61-259.024-255.61z"/></svg>