<svg class="svg-icon" style="width: 40px; height: 40px; vertical-align: middle; fill: rgba(255, 255, 255, 0.8); overflow: hidden;" viewBox="0 0 1024 1024" version="1.1" xmlns="http://www.w3.org/2000/svg" width="40px" height="40px"><path d="M908.01726 958.059428c-10.45791 0-20.988969-3.181243-30.10259-9.661849-1.28353-0.913181-2.559665-1.904509-3.903953-3.032344-1.103452-0.926572-2.3592-2.032822-3.949122-3.483238-2.290247-2.086186-5.416727-5.012801-9.561118-8.945935-7.259678-6.891528-17.807926-17.040447-31.352143-30.16195-22.664234-21.957713-54.141892-52.652701-93.557768-91.231545-38.567451-37.748806-77.366346-75.833785-103.500427-101.507778-47.976472 33.203488-119.532357 68.915475-205.342977 68.915475-48.764138 0-96.103042-9.456389-140.699006-28.108542-43.08219-18.018384-81.772158-43.810496-114.994034-76.661623-33.257851-32.886103-59.379541-71.205123-77.63996-113.894979-18.931964-44.258193-28.531256-91.248933-28.531256-139.665507s9.599292-95.406115 28.531256-139.665507c18.260419-42.689856 44.382109-81.009875 77.640959-113.894779 33.221876-32.850128 71.911644-58.64344 114.993834-76.661623 44.595964-18.652154 91.933869-28.108542 140.699206-28.108542s96.103042 9.457588 140.699006 28.108542c43.08219 18.018184 81.772158 43.810496 114.992835 76.661623 33.257851 32.885104 59.379341 71.205123 77.63996 113.894779 18.932164 44.259392 28.531256 91.250132 28.531256 139.665507 0 79.223486-28.180494 155.447607-80.261383 219.23316 26.086713 25.282658 63.012877 61.094378 99.684014 96.731216 39.474436 38.364189 70.938903 69.027399 93.516596 91.142206 13.472266 13.193455 23.919782 23.479881 31.053945 30.576869 4.021074 3.999888 7.018841 7.011846 9.164187 9.209956 5.674952 5.815057 17.481947 17.914454 17.649634 38.753525l0.173682 21.502621-15.218482 15.220081C934.396175 952.954089 921.264279 958.059428 908.01726 958.059428zM426.747361 165.008916c-142.825764 0-259.022982 114.666256-259.022982 255.609697s116.197218 255.609697 259.022982 255.609697c76.88827 0 140.284687-43.093583 172.900773-70.593937l1.615705-1.506978c54.494453-50.839731 84.506704-116.010945 84.506704-183.508781C685.770344 279.675172 569.573125 165.008916 426.747361 165.008916z"/></svg>